<?xml version="1.0" encoding="utf-8"?>
<!-- Generator: Adobe Illustrator 22.1.0, SVG Export Plug-In . SVG Version: 6.00 Build 0)  -->
<svg version="1.1" id="Capa_1" xmlns="http://www.w3.org/2000/svg" xmlns:xlink="http://www.w3.org/1999/xlink" x="0px" y="0px"
	 viewBox="0 0 937.4 1958.5" style="enable-background:new 0 0 937.4 1958.5;" xml:space="preserve">
<style type="text/css">
	.st0{fill:#FFFFFF;}
</style>
<g>
	<path class="st0" d="M327,72c-0.1-0.2-0.3-0.4-0.4-0.6c-0.5-1-1.3-1.7-2.3-2.2c-0.2-0.2-0.4-0.3-0.6-0.4c-0.6,0.2-1.4,0.2-2,0
		l-26.1,5.9l-22.4-21.1c0,0-0.2,0-0.3,0c-0.5-0.3-1-0.5-1.5-0.6c-0.4-0.2-0.8-0.4-1.2-0.4c-0.2,0-0.3,0-0.5,0c-0.1,0-0.3,0-0.4,0
		L134.6,78.4l-83.4,1.4c-0.2,0.1-0.3,0.1-0.5,0.2c-0.2,0-0.4,0-0.6,0c0,0,0,0-0.2,0c-0.3,0.2-0.7,0.4-0.9,0.7
		c-0.4,0.2-0.8,0.6-1.1,0.9c-0.2,0.2-0.3,0.4-0.5,0.6l0,0L16.8,150c0,0.3,0,0.6,0,0.9c-0.1,0.5-0.1,1.1,0,1.6c0,0.3,0,0.6,0,0.9
		l21.4,57.8L32,242.6l0,0l0,0c0,0.6,0.2,1.2,0.4,1.7c0,0.5,0.2,1,0.4,1.5l0,0l0,0l54,72.3c0.1,0.1,0.2,0.1,0.4,0.2
		c0.2,0.2,0.3,0.4,0.5,0.6c0.7,0.6,1.7,1,2.6,1h0.6l100.9-12.8c0.4,0,0.8-0.1,1.1-0.3c0.6-0.2,1.1-0.5,1.6-0.9c0,0,0.2,0,0.3,0l0,0
		l110.8-142.9l0,0c0.1-0.3,0.2-0.6,0.3-0.9c0.2-0.3,0.4-0.5,0.6-0.8L327.1,74c0-0.3,0-0.6,0-1C327.1,72.7,327.1,72.3,327,72z
		 M25.9,153.1l27.1-24.7L41.3,194L25.9,153.1z M192.4,269.9l-78.3-72.8L289.9,167L192.4,269.9z M228.4,99.2l64,58.3l-181.6,31.2
		l27.6-100.9L228.4,99.2z M103.1,182.9l-37-64.5l62.2-27.6L103.1,182.9z M97.8,191.5l-49.5,13.2l13.8-75.8L97.8,191.5z M239.5,97.3
		l50.8-12.4l6.2,64.4L239.5,97.3z M245.3,86.7l24.9-24.1l15.1,14.2L245.3,86.7z M228.8,90.2l-65.4-8.3l93-18.1L228.8,90.2z
		 M62.8,110.1L57,88.6l56.2-0.9L62.8,110.1z M50.2,97.5l4.6,17.2l-21.2,19.4L50.2,97.5z M46.7,214.4l35.5-9.6l-39.3,28.5L46.7,214.4
		z M104.2,200.1l80.2,74.5l-92.5,36l-49.3-66.1L104.2,200.1z M187.9,282.7l-0.9,16.4l-61.3,7.7L187.9,282.7z M197,278l45.4-48.2
		l-46,59.5L197,278z M303.8,133.1L299.2,83l17.6-4L303.8,133.1z"/>
	<path class="st0" d="M926.1,1055.1c-0.1-0.2-0.3-0.4-0.4-0.6c-0.5-0.9-1.2-1.7-2.2-2.1c-0.2-0.1-0.4-0.3-0.6-0.4
		c-0.6,0.2-1.3,0.2-1.9,0l-25.1,5.7l-21.5-20.3c0,0-0.2,0-0.3,0c-0.4-0.3-0.9-0.5-1.5-0.6c-0.4-0.2-0.8-0.3-1.2-0.4
		c-0.2,0-0.3,0-0.5,0c-0.1,0-0.2,0-0.4,0l-129.3,24.9l-80.1,1.4c-0.2,0.1-0.3,0.1-0.5,0.2c-0.2,0-0.4,0-0.5,0c0,0,0,0-0.2,0
		c-0.3,0.2-0.6,0.4-0.9,0.6c-0.4,0.2-0.8,0.5-1.1,0.9c-0.2,0.2-0.3,0.4-0.5,0.6l0,0l-29.4,65c0,0.3,0,0.6,0,0.8
		c-0.1,0.5-0.1,1,0,1.6c0,0.3,0,0.6,0,0.9l20.5,55.5l-5.9,30.2l0,0l0,0c0,0.6,0.2,1.1,0.4,1.6c0,0.5,0.2,1,0.4,1.5l0,0l0,0
		l51.8,69.5c0.1,0.1,0.2,0.1,0.4,0.2c0.1,0.2,0.3,0.4,0.5,0.6c0.7,0.6,1.6,0.9,2.5,1h0.6l96.9-12.3c0.4,0,0.7-0.1,1.1-0.3
		c0.6-0.2,1.1-0.5,1.5-0.9c0,0,0.2,0,0.3,0l0,0l106.4-137.2l0,0c0.1-0.3,0.2-0.6,0.3-0.9c0.2-0.2,0.4-0.5,0.5-0.8l19.8-83.9
		c0-0.3,0-0.6,0-0.9C926.2,1055.8,926.2,1055.4,926.1,1055.1z M637,1133l26.1-23.7l-11.3,63L637,1133z M796.9,1245.2l-75.1-69.9
		l168.7-28.9L796.9,1245.2z M831.4,1081.3l61.4,56l-174.4,30l26.5-96.9L831.4,1081.3z M711.1,1161.6l-35.5-61.9l59.8-26.5
		L711.1,1161.6z M706,1169.9l-47.5,12.7l13.2-72.8L706,1169.9z M842.1,1079.5l48.8-11.9l6,61.9L842.1,1079.5z M847.6,1069.3
		l23.9-23.2l14.5,13.7L847.6,1069.3z M831.8,1072.6l-62.8-8l89.3-17.4L831.8,1072.6z M672.4,1091.7l-5.5-20.6l53.9-0.9L672.4,1091.7
		z M660.3,1079.6l4.4,16.5l-20.3,18.6L660.3,1079.6z M657,1191.9l34.1-9.2l-37.8,27.4L657,1191.9z M712.2,1178.1l77,71.5l-88.8,34.5
		l-47.3-63.5L712.2,1178.1z M792.5,1257.5l-0.8,15.8l-58.9,7.4L792.5,1257.5z M801.3,1252.9l43.6-46.3l-44.2,57.1L801.3,1252.9z
		 M903.8,1113.8l-4.4-48.1l16.9-3.8L903.8,1113.8z"/>
	<path class="st0" d="M676.7,98.1c-0.2,0.1-0.5,0.3-0.7,0.4c-1,0.4-1.9,1.2-2.4,2.2c-0.2,0.2-0.3,0.4-0.5,0.6
		c0.2,0.7,0.1,1.4-0.1,2.1l4.3,27.3l-23.3,21.6c0,0,0,0.2,0,0.3c-0.3,0.5-0.6,1-0.7,1.5c-0.2,0.4-0.4,0.8-0.5,1.2c0,0.2,0,0.3,0,0.5
		c0,0.1,0,0.3,0,0.4L670,296.9l-4.3,86.1c0,0.2,0.1,0.4,0.2,0.5c0,0.2,0,0.4,0,0.6c0,0,0,0,0,0.2c0.2,0.4,0.4,0.7,0.6,1
		c0.2,0.5,0.5,0.9,0.9,1.2c0.2,0.2,0.4,0.4,0.6,0.5l0,0l67.7,36.3c0.3,0,0.6,0.1,0.9,0.1c0.5,0.2,1.1,0.2,1.7,0.1
		c0.3,0.1,0.6,0.1,1,0.1l61.1-18l32,8.5l0,0l0,0c0.6,0,1.2-0.1,1.8-0.3c0.5,0,1.1-0.1,1.6-0.3l0,0l0,0l78.3-50.6
		c0.1-0.1,0.1-0.2,0.2-0.4c0.2-0.1,0.4-0.3,0.6-0.5c0.7-0.7,1.1-1.6,1.2-2.6l0-0.6l-6.2-104.9c0-0.4-0.1-0.8-0.2-1.2
		c-0.1-0.6-0.4-1.2-0.8-1.7c0,0,0-0.2,0-0.3l0,0L769.1,126.5l0,0c-0.3-0.1-0.6-0.3-0.9-0.3c-0.2-0.2-0.5-0.5-0.8-0.6l-88.6-27.4
		c-0.3-0.1-0.7-0.1-1-0.1C677.4,98.1,677,98.1,676.7,98.1z M739.3,414.1l-23.6-29.7l66.8,16.7L739.3,414.1z M871.3,250.6l-80.5,75.6
		L772,143L871.3,250.6z M697.9,201.7l64.5-61.9l19.5,189.4l-102.1-35.4L697.9,201.7z M775.4,336.6l-69,33.6l-24.1-66.1L775.4,336.6z
		 M783.9,342.7l10.2,51.9l-77.1-19.5L783.9,342.7z M696.7,190.1l-9.3-53.3l66.8-1.9L696.7,190.1z M686.2,183.4l-23.1-27.3l15.7-14.6
		L686.2,183.4z M688.6,200.6l-13.1,66.9l-12.2-97.1L688.6,200.6z M697.6,373.1l-22.5,4.4l2.9-58L697.6,373.1z M683.7,385.2l18.1-3.6
		l18.5,23.2L683.7,385.2z M803.9,396.9l-7.4-37.2l26.6,42.5L803.9,396.9z M793.2,336.7l82.4-77.5l30.6,97.9l-71.6,46.2L793.2,336.7z
		 M884.2,256.2l16.9,2l3.7,63.8L884.2,256.2z M879.9,246.4l-46.5-50.1l58.1,51.5L879.9,246.4z M738,126.3l-52,1.2l-2.9-18.5
		L738,126.3z"/>
	<path class="st0" d="M266.9,1283.1c0.2-0.1,0.3-0.3,0.5-0.4c0.8-0.5,1.4-1.3,1.7-2.2c0.1-0.2,0.2-0.4,0.3-0.5
		c-0.2-0.5-0.3-1.2-0.2-1.7l-7.4-22.2l16.4-21.3c0,0,0-0.2,0-0.3c0.2-0.4,0.3-0.9,0.4-1.4c0.1-0.3,0.2-0.7,0.3-1.1
		c0-0.1,0-0.3,0-0.4c0-0.1,0-0.2,0-0.3l-34.3-114.8l-8.5-72.4c-0.1-0.1-0.1-0.3-0.2-0.4c0-0.2,0-0.3,0-0.5c0,0,0,0,0-0.2
		c-0.2-0.3-0.4-0.5-0.7-0.8c-0.2-0.4-0.6-0.7-0.9-0.9c-0.2-0.1-0.4-0.3-0.6-0.4l0,0l-61.6-20.7c-0.3,0-0.5,0-0.7,0.1
		c-0.5-0.1-1,0-1.4,0.1c-0.3,0-0.5,0-0.8,0.1l-48.4,23.6l-27.9-2.6l0,0l0,0c-0.5,0.1-1,0.2-1.4,0.5c-0.5,0.1-0.9,0.2-1.3,0.5l0,0
		l0,0l-58.2,53.3c0,0.1-0.1,0.2-0.1,0.3c-0.2,0.2-0.3,0.3-0.5,0.5c-0.5,0.7-0.7,1.5-0.6,2.4l0.1,0.5l19.9,86.6
		c0.1,0.3,0.2,0.7,0.3,1c0.2,0.5,0.5,0.9,0.9,1.3c0,0,0,0.2,0,0.2l0,0l133.9,83.9l0,0c0.3,0.1,0.5,0.1,0.8,0.2
		c0.2,0.2,0.5,0.3,0.8,0.4l77.8,10.3c0.3,0,0.6,0,0.8-0.1C266.3,1283.3,266.6,1283.2,266.9,1283.1z M170,1028.4l23.8,21.4l-58.1-4.5
		L170,1028.4z M83,1183.4l56.5-74.4l41.6,150.1L83,1183.4z M234.6,1199.7l-45.1,60.7l-43-155.2l90.1,15.1L234.6,1199.7z
		 M150.9,1098.1l52.8-37.8l29.4,51.7L150.9,1098.1z M143,1094.3l-15.8-41.9l67.1,5.4L143,1094.3z M237.2,1209.3l15.3,43.1l-55.5,11
		L237.2,1209.3z M246.9,1213.4l23.1,19.5l-11,14.4L246.9,1213.4z M242.5,1199.3l1.5-57.6l23.9,79.3L242.5,1199.3z M210.6,1056.7
		l18.2-6.8l5.7,48.8L210.6,1056.7z M220.5,1044.7l-14.6,5.5l-18.7-16.7L220.5,1044.7z M118.6,1051.9l11.4,30l-28.2-31.7
		L118.6,1051.9z M136,1100.6l-57.8,76.3l-39.4-77.3l53.2-48.6L136,1100.6z M71.5,1180.6l-14.4,0.7l-12-52.7L71.5,1180.6z
		 M76.4,1188.1l45.9,35.3l-55.7-34.8L76.4,1188.1z M211.7,1268.3l43.2-8.4l5,15L211.7,1268.3z"/>
	<g>
		<circle class="st0" cx="79.7" cy="848.8" r="7.2"/>
		<circle class="st0" cx="79.7" cy="794.6" r="7.2"/>
		<circle class="st0" cx="64.1" cy="821.7" r="7.2"/>
		<circle class="st0" cx="64.1" cy="767.5" r="7.2"/>
		<circle class="st0" cx="111" cy="794.6" r="7.2"/>
		<circle class="st0" cx="95.4" cy="821.7" r="7.2"/>
		<circle class="st0" cx="127" cy="821.7" r="7.2"/>
		<circle class="st0" cx="48.5" cy="794.6" r="7.2"/>
		<circle class="st0" cx="111" cy="848.8" r="7.2"/>
	</g>
	<g>
		<circle class="st0" cx="851" cy="476.1" r="3.7"/>
		<circle class="st0" cx="873.2" cy="493.3" r="3.7"/>
		<circle class="st0" cx="867.1" cy="478.3" r="3.7"/>
		<circle class="st0" cx="889.3" cy="495.5" r="3.7"/>
		<circle class="st0" cx="863.3" cy="506.2" r="3.7"/>
		<circle class="st0" cx="857.1" cy="491.1" r="3.7"/>
		<circle class="st0" cx="847" cy="504.1" r="3.7"/>
		<circle class="st0" cx="883.2" cy="480.5" r="3.7"/>
		<circle class="st0" cx="841" cy="488.9" r="3.7"/>
	</g>
	<g>
		<circle class="st0" cx="21.5" cy="1010.4" r="3.7"/>
		<circle class="st0" cx="43.7" cy="1027.7" r="3.7"/>
		<circle class="st0" cx="37.6" cy="1012.6" r="3.7"/>
		<circle class="st0" cx="59.8" cy="1029.9" r="3.7"/>
		<circle class="st0" cx="33.8" cy="1040.5" r="3.7"/>
		<circle class="st0" cx="27.6" cy="1025.5" r="3.7"/>
		<circle class="st0" cx="17.6" cy="1038.5" r="3.7"/>
		<circle class="st0" cx="53.7" cy="1014.8" r="3.7"/>
		<circle class="st0" cx="11.5" cy="1023.3" r="3.7"/>
	</g>
	<g>
		<circle class="st0" cx="913.7" cy="844.1" r="4.6"/>
		<circle class="st0" cx="879.7" cy="852.3" r="4.6"/>
		<circle class="st0" cx="899.1" cy="858" r="4.6"/>
		<circle class="st0" cx="865.1" cy="866.3" r="4.6"/>
		<circle class="st0" cx="874.9" cy="832.7" r="4.6"/>
		<circle class="st0" cx="894.3" cy="838.4" r="4.6"/>
		<circle class="st0" cx="889.5" cy="818.6" r="4.6"/>
		<circle class="st0" cx="884.5" cy="872" r="4.6"/>
		<circle class="st0" cx="908.9" cy="824.5" r="4.6"/>
	</g>
	<g>
		<circle class="st0" cx="893.9" cy="31.5" r="8.8"/>
		<circle class="st0" cx="882.8" cy="97.3" r="8.8"/>
		<circle class="st0" cx="907.4" cy="67.6" r="8.8"/>
		<circle class="st0" cx="896.2" cy="133.4" r="8.8"/>
		<circle class="st0" cx="844.8" cy="90.9" r="8.8"/>
		<circle class="st0" cx="869.4" cy="61.2" r="8.8"/>
		<circle class="st0" cx="831" cy="54.7" r="8.8"/>
		<circle class="st0" cx="920.8" cy="103.7" r="8.8"/>
		<circle class="st0" cx="855.9" cy="25.1" r="8.8"/>
	</g>
	<path class="st0" d="M55,1498.1c-0.3,0.1-0.5,0.3-0.8,0.5c-1.2,0.5-2.1,1.4-2.7,2.5c-0.2,0.2-0.4,0.4-0.5,0.7
		c0.2,0.8,0.2,1.6-0.2,2.4l4.9,31.2L29,1560.1c0,0,0,0.2,0,0.4c-0.4,0.5-0.7,1.1-0.8,1.7c-0.3,0.4-0.5,0.9-0.6,1.4
		c0,0.2,0,0.4,0,0.6c0,0.1,0,0.3,0,0.4l19.9,160.7l-5,98.4c0.1,0.2,0.1,0.4,0.2,0.6c0,0.2,0,0.4,0,0.6c0,0,0,0,0,0.2
		c0.2,0.4,0.4,0.8,0.7,1.1c0.2,0.5,0.6,1,1,1.4c0.2,0.2,0.4,0.4,0.7,0.6l0,0l77.4,41.5c0.3,0.1,0.7,0.1,1,0.1
		c0.6,0.2,1.3,0.2,1.9,0.1c0.4,0.1,0.7,0.1,1.1,0.1l69.9-20.6l36.5,9.7l0,0l0,0c0.7,0,1.4-0.1,2-0.4c0.6,0,1.2-0.1,1.8-0.3l0,0l0,0
		l89.5-57.9c0.1-0.1,0.2-0.3,0.2-0.4c0.3-0.2,0.5-0.4,0.7-0.6c0.8-0.8,1.3-1.9,1.4-3l0-0.7l-7-119.9c0-0.5-0.1-0.9-0.2-1.4
		c-0.2-0.7-0.5-1.4-0.9-1.9c0,0,0-0.2,0-0.3l0,0l-159.6-142l0,0c-0.3-0.2-0.7-0.3-1-0.4c-0.3-0.3-0.6-0.5-0.9-0.7l-101.3-31.3
		c-0.4-0.1-0.8-0.1-1.1-0.1C55.9,1498.1,55.4,1498.1,55,1498.1z M126.7,1859.4l-26.9-34l76.4,19.1L126.7,1859.4z M277.6,1672.5
		l-92,86.4L164,1549.5L277.6,1672.5z M79.3,1616.5l73.8-70.8l22.3,216.5l-116.7-40.5L79.3,1616.5z M167.9,1770.8L89,1809.3
		l-27.5-75.5L167.9,1770.8z M177.6,1777.7l11.7,59.3l-88.2-22.3L177.6,1777.7z M78,1603.3l-10.6-60.9l76.4-2.2L78,1603.3z
		 M66,1595.6l-26.4-31.2l18-16.7L66,1595.6z M68.7,1615.3l-15,76.5l-14-111L68.7,1615.3z M79,1812.6l-25.7,5l3.4-66.3L79,1812.6z
		 M63.1,1826.4l20.7-4.1l21.1,26.5L63.1,1826.4z M200.6,1839.7l-8.5-42.6l30.4,48.6L200.6,1839.7z M188.3,1770.9l94.2-88.6l35,111.9
		l-81.9,52.8L188.3,1770.9z M292.4,1678.9l19.3,2.3l4.2,72.9L292.4,1678.9z M287.5,1667.7l-53.2-57.3l66.5,58.9L287.5,1667.7z
		 M125.2,1530.3l-59.4,1.4l-3.3-21.1L125.2,1530.3z"/>
	<path class="st0" d="M901.1,1942.1c0.2-0.1,0.3-0.3,0.5-0.4c0.8-0.5,1.4-1.3,1.7-2.2c0.1-0.2,0.2-0.4,0.3-0.5
		c-0.2-0.5-0.3-1.2-0.2-1.7L896,1915l16.4-21.3c0,0,0-0.2,0-0.3c0.2-0.4,0.3-0.9,0.4-1.4c0.1-0.3,0.2-0.7,0.3-1.1c0-0.1,0-0.3,0-0.4
		c0-0.1,0-0.2,0-0.3l-34.3-114.8l-8.5-72.4c-0.1-0.1-0.1-0.3-0.2-0.4c0-0.2,0-0.3,0-0.5c0,0,0,0,0-0.2c-0.2-0.3-0.4-0.5-0.7-0.8
		c-0.2-0.4-0.6-0.7-0.9-0.9c-0.2-0.1-0.4-0.3-0.6-0.4l0,0l-61.6-20.7c-0.3,0-0.5,0-0.7,0.1c-0.5-0.1-1,0-1.4,0.1
		c-0.3,0-0.5,0-0.8,0.1l-48.4,23.6l-27.9-2.6l0,0l0,0c-0.5,0.1-1,0.2-1.4,0.5c-0.5,0.1-0.9,0.2-1.3,0.5l0,0l0,0l-58.2,53.3
		c0,0.1-0.1,0.2-0.1,0.3c-0.2,0.2-0.3,0.3-0.5,0.5c-0.5,0.7-0.7,1.5-0.6,2.4l0.1,0.5l19.9,86.6c0.1,0.3,0.2,0.7,0.3,1
		c0.2,0.5,0.5,0.9,0.9,1.3c0,0,0,0.2,0,0.2l0,0l133.9,83.9l0,0c0.3,0.1,0.5,0.1,0.8,0.2c0.2,0.2,0.5,0.3,0.8,0.4l77.8,10.3
		c0.3,0,0.6,0,0.8-0.1C900.5,1942.2,900.8,1942.2,901.1,1942.1z M804.2,1687.3l23.8,21.4l-58.1-4.5L804.2,1687.3z M717.2,1842.3
		l56.5-74.4l41.6,150.1L717.2,1842.3z M868.8,1858.7l-45.1,60.7l-43-155.2l90.1,15.1L868.8,1858.7z M785.1,1757l52.8-37.8l29.4,51.7
		L785.1,1757z M777.2,1753.2l-15.8-41.9l67.1,5.4L777.2,1753.2z M871.4,1868.2l15.3,43.1l-55.5,11L871.4,1868.2z M881.1,1872.3
		l23.1,19.5l-11,14.4L881.1,1872.3z M876.7,1858.2l1.5-57.6l23.9,79.3L876.7,1858.2z M844.8,1715.6l18.2-6.8l5.7,48.8L844.8,1715.6z
		 M854.7,1703.6l-14.6,5.5l-18.7-16.7L854.7,1703.6z M752.8,1710.8l11.4,30l-28.2-31.7L752.8,1710.8z M770.2,1759.5l-57.8,76.3
		l-39.4-77.3l53.2-48.6L770.2,1759.5z M705.6,1839.5l-14.4,0.7l-12-52.7L705.6,1839.5z M710.6,1847l45.9,35.3l-55.7-34.8L710.6,1847
		z M845.9,1927.2l43.2-8.4l5,15L845.9,1927.2z"/>
	<g>
		<circle class="st0" cx="104.7" cy="1378" r="4.6"/>
		<circle class="st0" cx="70.7" cy="1386.2" r="4.6"/>
		<circle class="st0" cx="90.1" cy="1391.9" r="4.6"/>
		<circle class="st0" cx="56.1" cy="1400.1" r="4.6"/>
		<circle class="st0" cx="65.9" cy="1366.6" r="4.6"/>
		<circle class="st0" cx="85.3" cy="1372.3" r="4.6"/>
		<circle class="st0" cx="80.5" cy="1352.4" r="4.6"/>
		<circle class="st0" cx="75.5" cy="1405.8" r="4.6"/>
		<circle class="st0" cx="99.9" cy="1358.3" r="4.6"/>
	</g>
	<g>
		<circle class="st0" cx="862.1" cy="1474.3" r="8.8"/>
		<circle class="st0" cx="851" cy="1540.1" r="8.8"/>
		<circle class="st0" cx="875.5" cy="1510.4" r="8.8"/>
		<circle class="st0" cx="864.4" cy="1576.2" r="8.8"/>
		<circle class="st0" cx="813" cy="1533.7" r="8.8"/>
		<circle class="st0" cx="837.6" cy="1504" r="8.8"/>
		<circle class="st0" cx="799.2" cy="1497.6" r="8.8"/>
		<circle class="st0" cx="889" cy="1546.6" r="8.8"/>
		<circle class="st0" cx="824.1" cy="1467.9" r="8.8"/>
	</g>
</g>
</svg>
